grf
version=1
nRows=9
nColumns=37
inDegrees=no
endheader
time	ground_force_1_vx	ground_force_1_vy	ground_force_1_vz	ground_force_1_px	ground_force_1_py	ground_force_1_pz	ground_moment_1_mx	ground_moment_1_my	ground_moment_1_mz	ground_force_2_vx	ground_force_2_vy	ground_force_2_vz	ground_force_2_px	ground_force_2_py	ground_force_2_pz	ground_moment_2_mx	ground_moment_2_my	ground_moment_2_mz	ground_force_3_vx	ground_force_3_vy	ground_force_3_vz	ground_force_3_px	ground_force_3_py	ground_force_3_pz	ground_moment_3_mx	ground_moment_3_my	ground_moment_3_mz	ground_force_4_vx	ground_force_4_vy	ground_force_4_vz	ground_force_4_px	ground_force_4_py	ground_force_4_pz	ground_moment_4_mx	ground_moment_4_my	ground_moment_4_mz
      2.04000000	      0.00000000	     -0.00000000	      0.00000000	      0.00000000	      0.00000000	      0.00000000	      0.00000000	      0.00000000	      0.00000000	     -3.55331159	     60.95038986	   -407.92285156	   -278.05146596	  -1112.33155540	      0.00000000	      0.00000000	      0.00000000	   5072.69961174	      3.04539267	    -60.97106579	   -414.21289062	   -279.30437783	   -667.69246257	      0.00000000	      0.00000000	     -0.00000000	  -3013.56897977	      0.00000000	     -0.00000000	      0.00000000	      0.00000000	      0.00000000	      0.00000000	      0.00000000	      0.00000000	      0.00000000
      2.05000000	      0.00000000	     -0.00000000	      0.00000000	      0.00000000	      0.00000000	      0.00000000	      0.00000000	      0.00000000	      0.00000000	     -4.38619614	     61.27719116	   -406.80468750	   -277.14811747	  -1111.40859596	      0.00000000	      0.00000000	      0.00000000	   4759.03103296	      3.14955437	    -61.39818601	   -412.28771973	   -278.39468173	   -667.26722836	      0.00000000	      0.00000000	     -0.00000000	  -3044.77467852	      0.00000000	     -0.00000000	      0.00000000	      0.00000000	      0.00000000	      0.00000000	      0.00000000	      0.00000000	      0.00000000
      2.06000000	      0.00000000	     -0.00000000	      0.00000000	      0.00000000	      0.00000000	      0.00000000	      0.00000000	      0.00000000	      0.00000000	     -5.66459608	     61.94563293	   -410.68905640	   -276.70395280	  -1112.72879828	      0.00000000	      0.00000000	      0.00000000	   4691.24983601	      3.14932258	    -61.88412885	   -412.40615845	   -277.01319631	   -666.95000092	      0.00000000	      0.00000000	     -0.00000000	  -2952.54679612	      0.00000000	     -0.00000000	      0.00000000	      0.00000000	      0.00000000	      0.00000000	      0.00000000	      0.00000000	      0.00000000
      2.07000000	      0.00000000	     -0.00000000	      0.00000000	      0.00000000	      0.00000000	      0.00000000	      0.00000000	      0.00000000	      0.00000000	     -6.64572859	     61.61912537	   -412.74844360	   -276.83466242	  -1113.41599161	      0.00000000	      0.00000000	      0.00000000	   4692.54101826	      2.63168986	    -61.89875435	   -412.05722046	   -276.80483933	   -665.85338572	      0.00000000	      0.00000000	     -0.00000000	  -2893.73461560	      0.00000000	     -0.00000000	      0.00000000	      0.00000000	      0.00000000	      0.00000000	      0.00000000	      0.00000000	      0.00000000
      2.08000000	      0.00000000	     -0.00000000	      0.00000000	      0.00000000	      0.00000000	      0.00000000	      0.00000000	      0.00000000	      0.00000000	     -6.89811850	     62.39252472	   -411.33529663	   -276.34209339	  -1112.68377525	      0.00000000	      0.00000000	      0.00000000	   4896.04216556	      2.07008114	    -61.07469958	   -409.72842407	   -275.78100416	   -666.37358286	      0.00000000	      0.00000000	     -0.00000000	  -3007.14898357	      0.00000000	     -0.00000000	      0.00000000	      0.00000000	      0.00000000	      0.00000000	      0.00000000	      0.00000000	      0.00000000
      2.09000000	      0.00000000	     -0.00000000	      0.00000000	      0.00000000	      0.00000000	      0.00000000	      0.00000000	      0.00000000	      0.00000000	     -7.61149168	     62.53926468	   -412.45416260	   -275.48513100	  -1112.95398370	      0.00000000	      0.00000000	      0.00000000	   4500.89423305	      1.44926015	    -60.97172559	   -410.60229492	   -275.91493278	   -665.23345953	      0.00000000	      0.00000000	     -0.00000000	  -2961.18727945	      0.00000000	     -0.00000000	      0.00000000	      0.00000000	      0.00000000	      0.00000000	      0.00000000	      0.00000000	      0.00000000
      2.10000000	      0.00000000	     -0.00000000	      0.00000000	      0.00000000	      0.00000000	      0.00000000	      0.00000000	      0.00000000	      0.00000000	     -7.43490076	     62.52601624	   -412.04873657	   -275.48290910	  -1112.09508412	      0.00000000	      0.00000000	      0.00000000	   4527.44147172	      1.12455315	    -60.55879221	   -408.50738525	   -274.93417817	   -666.19644548	      0.00000000	      0.00000000	     -0.00000000	  -2799.15116515	      0.00000000	     -0.00000000	      0.00000000	      0.00000000	      0.00000000	      0.00000000	      0.00000000	      0.00000000	      0.00000000
      2.11000000	      0.00000000	     -0.00000000	      0.00000000	      0.00000000	      0.00000000	      0.00000000	      0.00000000	      0.00000000	      0.00000000	     -7.30242634	     63.08906555	   -414.57278442	   -276.20119250	  -1113.57550405	      0.00000000	      0.00000000	      0.00000000	   4372.25128426	      1.16830263	    -60.34040080	   -411.64306641	   -274.29601254	   -665.64563919	      0.00000000	      0.00000000	     -0.00000000	  -2942.85524623	      0.00000000	     -0.00000000	      0.00000000	      0.00000000	      0.00000000	      0.00000000	      0.00000000	      0.00000000	      0.00000000
      2.12000000	      0.00000000	     -0.00000000	      0.00000000	      0.00000000	      0.00000000	      0.00000000	      0.00000000	      0.00000000	      0.00000000	     -7.40447235	     63.47618484	   -416.33837891	   -276.43069637	  -1113.23085142	      0.00000000	      0.00000000	      0.00000000	   4351.21676780	      0.98879920	    -60.80841073	   -411.36019897	   -273.59630845	   -665.16326259	      0.00000000	      0.00000000	     -0.00000000	  -2928.27902725	      0.00000000	     -0.00000000	      0.00000000	      0.00000000	      0.00000000	      0.00000000	      0.00000000	      0.00000000	      0.00000000
